<?xml version="1.0" encoding="UTF-8"?>
<svg xmlns="http://www.w3.org/2000/svg" xmlns:xlink="http://www.w3.org/1999/xlink" width="38px" height="38px" viewBox="0 0 38 43" version="1.1">
<g id="surface1">
<path style=" stroke:none;fill-rule:nonzero;fill:rgb(87.843138%,58.039218%,5.882353%);fill-opacity:1;" d="M 19.007812 11.84375 C 13.613281 11.84375 9.261719 16.148438 9.261719 21.492188 C 9.261719 26.832031 13.613281 31.140625 19.007812 31.140625 C 24.402344 31.140625 28.753906 26.832031 28.753906 21.492188 C 28.753906 16.148438 24.402344 11.84375 19.007812 11.84375 Z M 19.007812 27.765625 C 15.523438 27.765625 12.671875 24.953125 12.671875 21.492188 C 12.671875 18.03125 15.515625 15.21875 19.007812 15.21875 C 22.503906 15.21875 25.34375 18.03125 25.34375 21.492188 C 25.34375 24.953125 22.496094 27.765625 19.007812 27.765625 Z M 31.425781 11.445312 C 31.425781 12.699219 30.410156 13.699219 29.152344 13.699219 C 27.890625 13.699219 26.878906 12.691406 26.878906 11.445312 C 26.878906 10.203125 27.898438 9.195312 29.152344 9.195312 C 30.410156 9.195312 31.425781 10.203125 31.425781 11.445312 Z M 37.882812 13.730469 C 37.738281 10.714844 37.042969 8.046875 34.8125 5.84375 C 32.589844 3.644531 29.890625 2.957031 26.847656 2.804688 C 23.707031 2.628906 14.300781 2.628906 11.164062 2.804688 C 8.125 2.949219 5.429688 3.636719 3.199219 5.835938 C 0.96875 8.039062 0.28125 10.707031 0.128906 13.722656 C -0.0507812 16.832031 -0.0507812 26.144531 0.128906 29.25 C 0.269531 32.265625 0.96875 34.9375 3.199219 37.136719 C 5.429688 39.339844 8.117188 40.027344 11.164062 40.179688 C 14.300781 40.355469 23.707031 40.355469 26.847656 40.179688 C 29.890625 40.035156 32.589844 39.347656 34.8125 37.136719 C 37.03125 34.9375 37.730469 32.265625 37.882812 29.25 C 38.058594 26.144531 38.058594 16.839844 37.882812 13.730469 Z M 33.828125 32.585938 C 33.164062 34.230469 31.882812 35.5 30.214844 36.164062 C 27.710938 37.144531 21.773438 36.917969 19.007812 36.917969 C 16.242188 36.917969 10.296875 37.136719 7.804688 36.164062 C 6.140625 35.507812 4.859375 34.242188 4.191406 32.585938 C 3.199219 30.109375 3.425781 24.230469 3.425781 21.492188 C 3.425781 18.753906 3.207031 12.867188 4.191406 10.398438 C 4.851562 8.75 6.132812 7.484375 7.804688 6.820312 C 10.304688 5.835938 16.242188 6.0625 19.007812 6.0625 C 21.773438 6.0625 27.71875 5.84375 30.214844 6.820312 C 31.875 7.476562 33.15625 8.742188 33.828125 10.398438 C 34.820312 12.875 34.589844 18.753906 34.589844 21.492188 C 34.589844 24.230469 34.820312 30.117188 33.828125 32.585938 Z M 33.828125 32.585938 "/>
</g>
</svg>
