<?xml version="1.0" encoding="UTF-8"?>
<svg xmlns="http://www.w3.org/2000/svg" xmlns:xlink="http://www.w3.org/1999/xlink" width="38px" height="38px" viewBox="0 0 38 43" version="1.1">
<g id="surface1">
<path style=" stroke:none;fill-rule:nonzero;fill:rgb(95.686275%,58.039218%,5.882353%);fill-opacity:1;" d="M 32.308594 8.15625 C 28.753906 4.628906 24.019531 2.6875 18.992188 2.6875 C 8.609375 2.6875 0.160156 11.050781 0.160156 21.332031 C 0.160156 24.617188 1.027344 27.824219 2.671875 30.65625 L 0 40.3125 L 9.984375 37.71875 C 12.730469 39.203125 15.828125 39.984375 18.984375 39.984375 L 18.992188 39.984375 C 29.363281 39.984375 38 31.621094 38 21.339844 C 38 16.359375 35.863281 11.683594 32.308594 8.15625 Z M 18.992188 36.84375 C 16.175781 36.84375 13.417969 36.097656 11.019531 34.6875 L 10.449219 34.351562 L 4.53125 35.886719 L 6.105469 30.167969 L 5.734375 29.578125 C 4.164062 27.109375 3.34375 24.261719 3.34375 21.332031 C 3.34375 12.789062 10.363281 5.835938 19 5.835938 C 23.183594 5.835938 27.109375 7.449219 30.0625 10.378906 C 33.011719 13.3125 34.828125 17.199219 34.820312 21.339844 C 34.820312 29.890625 27.617188 36.84375 18.992188 36.84375 Z M 27.574219 25.238281 C 27.109375 25.003906 24.792969 23.875 24.359375 23.726562 C 23.929688 23.566406 23.613281 23.492188 23.300781 23.960938 C 22.988281 24.429688 22.085938 25.472656 21.808594 25.792969 C 21.535156 26.101562 21.257812 26.144531 20.789062 25.910156 C 18.023438 24.539062 16.210938 23.464844 14.386719 20.367188 C 13.902344 19.542969 14.871094 19.601562 15.769531 17.820312 C 15.921875 17.511719 15.84375 17.242188 15.726562 17.007812 C 15.605469 16.773438 14.664062 14.480469 14.277344 13.546875 C 13.894531 12.640625 13.503906 12.765625 13.214844 12.75 C 12.945312 12.730469 12.628906 12.730469 12.316406 12.730469 C 12.003906 12.730469 11.492188 12.851562 11.0625 13.3125 C 10.628906 13.78125 9.414062 14.90625 9.414062 17.199219 C 9.414062 19.492188 11.101562 21.710938 11.332031 22.019531 C 11.570312 22.332031 14.648438 27.035156 19.375 29.058594 C 22.359375 30.335938 23.53125 30.445312 25.023438 30.226562 C 25.929688 30.089844 27.804688 29.101562 28.195312 28.007812 C 28.585938 26.917969 28.585938 25.984375 28.464844 25.792969 C 28.355469 25.582031 28.042969 25.464844 27.574219 25.238281 Z M 27.574219 25.238281 "/>
</g>
</svg>
